<?xml version="1.0" encoding="UTF-8"?>
<!DOCTYPE svg PUBLIC "-//W3C//DTD SVG 1.1//EN" "http://www.w3.org/Graphics/SVG/1.1/DTD/svg11.dtd">
<svg xmlns="http://www.w3.org/2000/svg" version="1.1" width="219px" height="143px" style="shape-rendering:geometricPrecision; text-rendering:geometricPrecision; image-rendering:optimizeQuality; fill-rule:evenodd; clip-rule:evenodd" xmlns:xlink="http://www.w3.org/1999/xlink">
<g><path style="opacity:0.877" fill="#DC6E52" d="M 57.5,-0.5 C 59.5,-0.5 61.5,-0.5 63.5,-0.5C 70.2291,9.75284 69.7291,19.7528 62,29.5C 61.3333,32.1667 61.3333,34.8333 62,37.5C 64.0762,40.2171 64.7429,43.2171 64,46.5C 61.4082,47.9817 59.0749,47.6483 57,45.5C 53.2968,39.135 52.6302,32.4684 55,25.5C 57.6409,21.8839 59.4743,17.8839 60.5,13.5C 59.9991,9.64698 58.6658,6.14698 56.5,3C 56.9891,1.86151 57.3225,0.69484 57.5,-0.5 Z"/></g>
<g><path style="opacity:0.874" fill="#DC6E52" d="M 78.5,-0.5 C 80.5,-0.5 82.5,-0.5 84.5,-0.5C 88.5818,6.40122 89.4151,13.7346 87,21.5C 84.3505,25.132 82.5171,29.132 81.5,33.5C 81.8577,37.2429 83.191,40.5762 85.5,43.5C 82.5792,48.6725 79.4126,48.6725 76,43.5C 72.6667,36.8333 72.6667,30.1667 76,23.5C 81.3898,17.0826 81.8898,10.2493 77.5,3C 77.6483,1.74407 77.9816,0.577401 78.5,-0.5 Z"/></g>
<g><path style="opacity:0.875" fill="#DC6E52" d="M 98.5,-0.5 C 100.5,-0.5 102.5,-0.5 104.5,-0.5C 108.274,5.60106 109.441,12.2677 108,19.5C 107.439,22.29 106.106,24.6234 104,26.5C 101.683,32.4723 102.183,38.1389 105.5,43.5C 103.355,48.4035 100.521,48.7368 97,44.5C 92.941,35.1876 93.941,26.5209 100,18.5C 100.251,16.567 100.751,14.7337 101.5,13C 100.318,9.46472 98.9847,5.96472 97.5,2.5C 97.685,1.41635 98.0183,0.416349 98.5,-0.5 Z"/></g>
<g><path style="opacity:0.95" fill="#DC6E52" d="M 203.5,-0.5 C 208.5,-0.5 213.5,-0.5 218.5,-0.5C 218.5,47.1667 218.5,94.8333 218.5,142.5C 213.5,142.5 208.5,142.5 203.5,142.5C 203.5,94.8333 203.5,47.1667 203.5,-0.5 Z"/></g>
<g><path style="opacity:0.912" fill="#DC6E52" d="M 137.5,142.5 C 97.5,142.5 57.5,142.5 17.5,142.5C 15.0578,140.774 12.3911,139.274 9.5,138C 6.29747,134.629 2.96414,131.462 -0.5,128.5C -0.5,126.5 -0.5,124.5 -0.5,122.5C 13.7588,121.684 28.0922,121.184 42.5,121C 22.6778,103.211 16.0112,81.544 22.5,56C 23.8333,55.3333 25.1667,54.6667 26.5,54C 60.8333,53.3333 95.1667,53.3333 129.5,54C 131.286,54.7845 132.786,55.9512 134,57.5C 135.589,61.0309 136.755,64.6976 137.5,68.5C 144.365,66.813 151.032,67.313 157.5,70C 166.411,81.7871 165.078,92.4538 153.5,102C 142.744,108.811 131.078,113.477 118.5,116C 116.792,118.043 114.792,119.71 112.5,121C 126.5,121.333 140.5,121.667 154.5,122C 156.325,123.466 156.825,125.299 156,127.5C 150.78,133.908 144.614,138.908 137.5,142.5 Z M 28.5,61.5 C 61.5067,61.1668 94.5067,61.5001 127.5,62.5C 129.964,87.0712 120.964,106.238 100.5,120C 62.2527,131.969 38.0861,118.802 28,80.5C 27.2098,74.0853 27.3765,67.752 28.5,61.5 Z M 144.5,74.5 C 155.245,75.988 158.078,81.6547 153,91.5C 145.533,98.8164 136.7,103.316 126.5,105C 131.853,96.6068 135.02,87.4402 136,77.5C 138.87,76.3068 141.704,75.3068 144.5,74.5 Z M 13.5,130.5 C 56.3314,129.335 99.3314,129.169 142.5,130C 139.465,133.017 135.799,134.683 131.5,135C 95.5,135.667 59.5,135.667 23.5,135C 19.7642,134.297 16.4309,132.797 13.5,130.5 Z"/></g>
</svg>
