<?xml version="1.0" encoding="UTF-8"?>
<!DOCTYPE svg PUBLIC "-//W3C//DTD SVG 1.1//EN" "http://www.w3.org/Graphics/SVG/1.1/DTD/svg11.dtd">
<svg xmlns="http://www.w3.org/2000/svg" version="1.1" width="221px" height="151px" style="shape-rendering:geometricPrecision; text-rendering:geometricPrecision; image-rendering:optimizeQuality; fill-rule:evenodd; clip-rule:evenodd" xmlns:xlink="http://www.w3.org/1999/xlink">
<g><path style="opacity:0.913" fill="#DC6E52" d="M 62.5,-0.5 C 70.8333,-0.5 79.1667,-0.5 87.5,-0.5C 126.969,9.14579 148.302,34.3125 151.5,75C 150.331,105.357 136.665,128.024 110.5,143C 103.565,146.031 96.5647,148.531 89.5,150.5C 79.8333,150.5 70.1667,150.5 60.5,150.5C 27.6174,141.618 7.28403,120.618 -0.5,87.5C -0.5,79.1667 -0.5,70.8333 -0.5,62.5C 7.5,28.5 28.5,7.5 62.5,-0.5 Z M 66.5,9.5 C 99.9886,7.65317 123.489,21.9865 137,52.5C 146.708,89.0785 135.208,116.579 102.5,135C 68.1254,147.618 40.2921,139.118 19,109.5C 4.73967,82.4951 6.73967,56.8285 25,32.5C 36.2274,19.973 50.0607,12.3064 66.5,9.5 Z"/></g>
<g><path style="opacity:1" fill="#DC6E52" d="M 205.5,-0.5 C 210.5,-0.5 215.5,-0.5 220.5,-0.5C 220.5,49.8333 220.5,100.167 220.5,150.5C 215.5,150.5 210.5,150.5 205.5,150.5C 205.5,100.167 205.5,49.8333 205.5,-0.5 Z"/></g>
<g><path style="opacity:0.886" fill="#DC6E52" d="M 71.5,36.5 C 78.2381,35.5525 81.9048,38.3858 82.5,45C 82.35,50.4834 79.5167,53.3167 74,53.5C 66.897,51.9238 64.5636,47.5904 67,40.5C 68.3968,38.9297 69.8968,37.5964 71.5,36.5 Z"/></g>
<g><path style="opacity:0.931" fill="#DC6E52" d="M 73.5,64.5 C 75.679,64.84 77.5123,65.84 79,67.5C 79.6667,82.5 79.6667,97.5 79,112.5C 76,115.167 73,115.167 70,112.5C 69.3333,97.1667 69.3333,81.8333 70,66.5C 71.3024,65.9152 72.469,65.2485 73.5,64.5 Z"/></g>
</svg>
