<?xml version="1.0" encoding="UTF-8"?>
<!DOCTYPE svg PUBLIC "-//W3C//DTD SVG 1.1//EN" "http://www.w3.org/Graphics/SVG/1.1/DTD/svg11.dtd">
<svg xmlns="http://www.w3.org/2000/svg" version="1.1" width="200px" height="143px" style="shape-rendering:geometricPrecision; text-rendering:geometricPrecision; image-rendering:optimizeQuality; fill-rule:evenodd; clip-rule:evenodd" xmlns:xlink="http://www.w3.org/1999/xlink">
<g><path style="opacity:0.936" fill="#DC6E52" d="M 10.5,-0.5 C 45.5,-0.5 80.5,-0.5 115.5,-0.5C 121.157,2.45162 124.657,7.11828 126,13.5C 126.667,51.8333 126.667,90.1667 126,128.5C 124.732,135.417 120.899,140.083 114.5,142.5C 79.8333,142.5 45.1667,142.5 10.5,142.5C 5.4746,140.141 1.80794,136.475 -0.5,131.5C -0.5,91.1667 -0.5,50.8333 -0.5,10.5C 1.5,5.16667 5.16667,1.5 10.5,-0.5 Z M 14.5,6.5 C 46.5017,6.33335 78.5017,6.50002 110.5,7C 113.196,7.68979 115.363,9.18979 117,11.5C 118.654,50.4157 118.988,89.4157 118,128.5C 116.878,130.624 115.378,132.457 113.5,134C 80.5607,135.645 47.5607,135.979 14.5,135C 11.8976,134.117 9.73092,132.617 8,130.5C 6.35157,91.8931 6.01824,53.2264 7,14.5C 8.35318,10.6499 10.8532,7.9832 14.5,6.5 Z"/></g>
<g><path style="opacity:0.982" fill="#DC6E52" d="M 185.5,-0.5 C 190.167,-0.5 194.833,-0.5 199.5,-0.5C 199.5,47.1667 199.5,94.8333 199.5,142.5C 194.833,142.5 190.167,142.5 185.5,142.5C 185.5,94.8333 185.5,47.1667 185.5,-0.5 Z"/></g>
<g><path style="opacity:0.867" fill="#DC6E52" d="M 22.5,23.5 C 49.1687,23.3334 75.8354,23.5 102.5,24C 105.172,26.6788 104.838,29.0121 101.5,31C 75.5,31.6667 49.5,31.6667 23.5,31C 19.8941,28.9497 19.5608,26.4497 22.5,23.5 Z"/></g>
<g><path style="opacity:0.836" fill="#DC6E52" d="M 22.5,52.5 C 49.1687,52.3334 75.8354,52.5 102.5,53C 105.167,55.3333 105.167,57.6667 102.5,60C 76.1667,60.6667 49.8333,60.6667 23.5,60C 19.8941,57.9497 19.5608,55.4497 22.5,52.5 Z"/></g>
<g><path style="opacity:0.863" fill="#DC6E52" d="M 22.5,81.5 C 49.1687,81.3334 75.8354,81.5 102.5,82C 105.167,84.3333 105.167,86.6667 102.5,89C 75.8333,89.6667 49.1667,89.6667 22.5,89C 19.9824,86.5212 19.9824,84.0212 22.5,81.5 Z"/></g>
<g><path style="opacity:0.837" fill="#DC6E52" d="M 23.5,110.5 C 49.5021,110.333 75.5021,110.5 101.5,111C 105.037,112.826 105.371,115.16 102.5,118C 75.8333,118.667 49.1667,118.667 22.5,118C 19.8604,115.11 20.1937,112.61 23.5,110.5 Z"/></g>
</svg>
